<svg xmlns="http://www.w3.org/2000/svg"  viewBox="0 0 1000 300" preserveAspectRatio="xMinYMax meet" role="img"><title>Céluma · cuadrícula Orden 10×3 · para fondo crema</title><desc>Cuadrícula de células ordenadas (10 × 3); una sola célula foco en salmón. Diagrama decorativo derivado de «Orden» (03), nunca micrografía. Recurso de B · Ficha (experimento 04) aprobado por Rafael en el laboratorio el 2026-10-07 · incorporación canónica pendiente: todavía no es un asset canónico.</desc><circle cx="50" cy="50" r="21" fill="#E4F3EA" stroke="#49B6AD" stroke-width="3.2"/><circle cx="150" cy="50" r="21" fill="#E4F3EA" stroke="#49B6AD" stroke-width="3.2"/><circle cx="250" cy="50" r="21" fill="#E4F3EA" stroke="#49B6AD" stroke-width="3.2"/><circle cx="350" cy="50" r="21" fill="#E4F3EA" stroke="#49B6AD" stroke-width="3.2"/><circle cx="450" cy="50" r="21" fill="#E4F3EA" stroke="#49B6AD" stroke-width="3.2"/><circle cx="550" cy="50" r="21" fill="#E4F3EA" stroke="#49B6AD" stroke-width="3.2"/><circle cx="650" cy="50" r="21" fill="#E4F3EA" stroke="#49B6AD" stroke-width="3.2"/><circle cx="750" cy="50" r="21" fill="#E4F3EA" stroke="#49B6AD" stroke-width="3.2"/><circle cx="850" cy="50" r="21" fill="#E4F3EA" stroke="#49B6AD" stroke-width="3.2"/><circle cx="950" cy="50" r="21" fill="#E4F3EA" stroke="#49B6AD" stroke-width="3.2"/><circle cx="50" cy="150" r="21" fill="#E4F3EA" stroke="#49B6AD" stroke-width="3.2"/><circle cx="150" cy="150" r="21" fill="#E4F3EA" stroke="#49B6AD" stroke-width="3.2"/><circle cx="250" cy="150" r="21" fill="#E4F3EA" stroke="#49B6AD" stroke-width="3.2"/><circle cx="350" cy="150" r="30" fill="#F98D84"/><circle cx="450" cy="150" r="21" fill="#E4F3EA" stroke="#49B6AD" stroke-width="3.2"/><circle cx="550" cy="150" r="21" fill="#E4F3EA" stroke="#49B6AD" stroke-width="3.2"/><circle cx="650" cy="150" r="21" fill="#E4F3EA" stroke="#49B6AD" stroke-width="3.2"/><circle cx="750" cy="150" r="21" fill="#E4F3EA" stroke="#49B6AD" stroke-width="3.2"/><circle cx="850" cy="150" r="21" fill="#E4F3EA" stroke="#49B6AD" stroke-width="3.2"/><circle cx="950" cy="150" r="21" fill="#E4F3EA" stroke="#49B6AD" stroke-width="3.2"/><circle cx="50" cy="250" r="21" fill="#E4F3EA" stroke="#49B6AD" stroke-width="3.2"/><circle cx="150" cy="250" r="21" fill="#E4F3EA" stroke="#49B6AD" stroke-width="3.2"/><circle cx="250" cy="250" r="21" fill="#E4F3EA" stroke="#49B6AD" stroke-width="3.2"/><circle cx="350" cy="250" r="21" fill="#E4F3EA" stroke="#49B6AD" stroke-width="3.2"/><circle cx="450" cy="250" r="21" fill="#E4F3EA" stroke="#49B6AD" stroke-width="3.2"/><circle cx="550" cy="250" r="21" fill="#E4F3EA" stroke="#49B6AD" stroke-width="3.2"/><circle cx="650" cy="250" r="21" fill="#E4F3EA" stroke="#49B6AD" stroke-width="3.2"/><circle cx="750" cy="250" r="21" fill="#E4F3EA" stroke="#49B6AD" stroke-width="3.2"/><circle cx="850" cy="250" r="21" fill="#E4F3EA" stroke="#49B6AD" stroke-width="3.2"/><circle cx="950" cy="250" r="21" fill="#E4F3EA" stroke="#49B6AD" stroke-width="3.2"/></svg>