<svg xmlns="http://www.w3.org/2000/svg" viewBox="355 441 528 118" width="528" height="118" role="img" aria-labelledby="t d">
  <title id="t">Céluma · wordmark B · trazado del Logotipo V2 de Notion (referencia, exploración)</title>
  <desc id="d">Exploración · no aprobada. Vectorización del wordmark de Celuma_Logotipo_V2.png (imagen, sin archivo de fuente). No es una tipografía instalada ni licenciada; geometría ajustada al raster. Color medido #0d1f40; aquí se usa el navy de marca #0d1b2a.</desc>
  <g id="wordmark-b" fill="#0d1b2a" fill-rule="evenodd">
    <path id="b-C" d="M457.91 483.53C459.82 481 454.56 472.34 453.48 470.55C437.61 444.15 405.96 442.05 385.28 452.37C362.46 463.77 350.38 487.84 357.44 519.34C357.68 520.51 359.32 526.3 360.75 529.01C385.26 575.79 450.56 560.24 455.9 531.21C454.45 537.82 456.64 532.04 456.65 531.99C457.96 528.09 462.6 522.53 453.68 520.39C453.63 520.37 443.4 516.77 440.12 517.18C435.94 517.7 434.73 527.34 426.59 532.73C408.97 544.4 385.06 535.15 380.14 511.61C378.28 502.73 378.87 493.52 383.45 484.18C392.07 466.57 414.06 462.57 427.56 473.37C432.1 477.01 435.88 486.44 438.56 488.08C441.87 490.11 450.35 486.33 454.43 485.47C455.6 485.23 457.01 484.72 457.91 483.53Z"/>
    <path id="b-e" d="M485.34 523.12C491.06 523.15 522.94 523.02 538.18 522.91C540.45 517.71 541.49 510.37 536.19 496.48C531.82 485.02 521.19 478.14 509.19 477.37C446.57 473.33 449.81 572.84 518.47 556.75C524.59 555.31 532.79 549.64 535.36 543.24C535.76 542.23 538.07 538.96 534.19 536.91C529.82 534.59 528.61 532.72 522.99 533.08C517.81 542.35 501.47 551.73 487.12 531.17C486.72 530.6 485.29 523.12 485.34 523.12Z M519.16 511.37C519.11 511.46 519.03 510.17 518.93 510.17C509.15 510.23 492.24 510.05 485.42 510.02C486.84 508.31 486.08 502.52 492.48 497.19C510.73 482.02 523.06 503.79 519.16 511.37Z"/>
    <path id="b-acento" d="M494.83 466.28C495.08 466.47 495.19 466.94 495.64 467.6C500.58 467.42 506.55 467.7 513.82 467.04C520.3 458.66 528.81 449.57 529.76 446.54C530 445.79 510.93 446.55 507.12 446.21C506.62 446.16 494.25 465.85 494.83 466.28Z"/>
    <path id="b-l" d="M549.99 444.34C549.97 444.39 549.93 478.55 550.01 482.16C550.19 490.05 549.96 553.24 550.81 554.57C553.33 558.51 566.19 555.95 568.32 556.76C568.69 556.9 572.12 554.52 572.11 554.47C571.86 553.49 572.4 446.79 571.11 445C567.71 440.25 560.25 442.48 555.64 442.24C554.4 442.18 550.85 442.49 549.99 444.34Z"/>
    <path id="b-u" d="M657.6 479.16C655.4 478.36 651.49 478.98 644.36 478.93C643.08 478.92 638.24 478.72 638.14 481.64C637.92 487.93 637.82 501.54 638.05 514.09C638.3 527.33 637.77 537.07 626.43 539.7C621.33 540.89 617.06 541.25 610.89 536.94C604.62 532.57 608.33 487.78 606.56 480.55C605.92 477.95 586.03 477.57 585.61 481.07C584.97 486.43 586.2 520.4 585.83 527.4C585.22 538.98 590.83 553.74 604.2 557.29C624.93 562.78 637.72 548.55 637.61 548.21C637.6 548.16 639.1 547.21 638.99 551.3C638.76 560.11 656.68 556.4 659.23 555.68C657.98 547.4 659.04 556.97 659.63 555.37C660.98 551.72 659 494.96 659.02 486.31C659.03 484.79 659.64 479.91 657.6 479.16Z"/>
    <path id="b-m" d="M743.89 489.46C744.18 490.26 740.09 484.65 739.47 484.04C736.17 480.72 731.67 477.99 724.35 477.07C706.61 474.83 694.42 487.14 694.28 489.74C694.28 489.79 694.1 486.19 693.4 482.78C692.46 478.22 690.24 479 683.24 478.91C678.27 478.84 674.01 477.94 673.87 482.74C673.65 490.26 674.01 510.23 674.08 518.58C674.12 523.64 673.6 553.85 674.45 554.85C676.55 557.31 680.2 556.75 687.44 556.83C692.9 556.89 695.49 556.75 695.83 550.85C696.18 544.9 695.54 506.09 696.27 504.58C698.93 499.02 702.74 496.61 706.6 495.65C715.16 493.52 721.08 496.87 723.47 500.96C726.14 505.55 725.91 511.36 726 519.57C726.13 532.25 725.4 554.26 726.69 555.24C729.93 557.71 734.62 556.69 738.11 556.82C739.51 556.88 745.9 557.19 746.8 555.51C748.42 552.51 748.06 554.41 748.06 554.36C747.36 545.21 748.21 529.04 747.25 515.48C746.26 501.5 752.33 492.68 768.82 495.6C769.47 495.71 773.86 497.49 776.66 502C778.66 505.23 777.94 539.01 777.68 548.31C777.34 560.76 781.17 556.38 792.75 557.41C800.29 558.09 799.67 552.81 799.5 541.97C799.36 533.11 800.55 505.9 798.42 498.24C794.36 483.69 784.78 478.65 774.46 477.08C758.51 474.64 742.55 485.67 743.89 489.46Z"/>
    <path id="b-a" d="M861.7 510.38C858.72 512.81 838.45 507.95 823.91 514.57C814.56 518.82 805.78 527.95 810.82 543.68C815.6 558.62 832.84 559.83 845.17 557.7C851.33 556.64 860.2 550.43 861.99 547.21C862.02 547.17 861.26 554.8 863.2 556.34C864.2 557.14 878.48 556.71 879.32 556.59C879.74 556.54 880.31 556.05 881.71 554.88C882.21 554.46 882.01 536 881.86 532.11C881.1 513.29 884.03 497.81 875.61 487.85C869.44 480.56 858.1 474.17 835.61 477.85C822.3 480.03 810.98 495.8 815.39 500.93C816.22 501.9 828.06 506.22 830.36 505.04C833.92 503.22 833.2 498.88 837.62 496.11C844.63 491.74 861.22 492.72 861.01 506.95C860.99 508.72 861.95 505.41 861.93 505.46C859.68 510.74 861.74 510.35 861.7 510.38Z M859.61 524.37C861.95 526.01 858.86 535.34 852.67 539.77C848.48 542.76 840.32 545.31 835.25 541.38C830.39 537.62 832.62 527.47 840.06 524.98C843.71 523.76 859 523.94 859.61 524.37Z"/>
  </g>
</svg>
