<svg xmlns="http://www.w3.org/2000/svg" viewBox="69 38 2093 678" width="2093" height="678" role="img" aria-labelledby="t d">
  <title id="t">Céluma · lockup horizontal · color-negativo · Propuesta A · Baloo 2 ExtraBold (en uso en app, landing y docs)</title>
  <desc id="d">Exploración · no aprobada. PROPUESTA de lockup pendiente de decisión de Rafael (D-1). Isotipo = maestro fiel (color) o adaptación a una tinta (mono). Ver labs/experiments/2-logo-vector-v2/README.md. Fondo sugerido #0d1b2a.</desc>
  <g id="isotipo">
  <g id="rayos" fill="#f1c46c">
    <path id="rayo-1" d="M183.66 233.31C182.47 228.04 175.88 223.84 162.22 217.08C155.59 213.79 147.62 209.01 138.86 204.31C117.96 193.09 94.5 179.63 93.42 179.35C87.38 177.81 79.38 178.53 75.71 185.03C74.53 187.12 72.26 192.62 73.29 195.9C73.79 197.49 75.6 202.31 78 204.33C80.47 206.4 162.91 251.44 164.5 251.8C176.33 254.53 186.43 245.58 183.66 233.31Z"/>
    <path id="rayo-2" d="M172.15 85.95C172.68 88.98 231.82 168.44 234.96 170.48C242.44 175.35 249.22 175.34 255.59 169.58C258.98 166.53 261.33 159.22 258.79 153.65C257.49 150.8 197.82 70.21 195.85 69.21C188.69 65.57 182.16 66.03 176.73 70.99C173.08 74.32 171.16 80.33 172.15 85.95Z"/>
    <path id="rayo-3" d="M363.59 150.54C367.32 149.26 370.45 145.45 372.19 140.49C373.5 136.75 373.2 56.1 372.08 53.54C368.01 44.16 359.41 40.8 351.34 44.27C346.27 46.45 343.69 50.8 342.08 56.32C342.06 56.36 341.84 86.7 341.99 88.99C342.71 100.29 340.56 124.98 343.46 140.01C345.07 148.34 354.28 153.73 363.59 150.54Z"/>
  </g>
  <g id="celula">
    <path id="membrana" fill="#3baca6" d="M618.6 360.78C610.81 298.37 580.47 242.37 527.69 207.69C459.69 163.01 386.06 167.67 326.78 196.14C265.32 225.66 216.7 283.65 175.65 339.8C161 359.84 144.81 383.35 130.05 411.06C81.88 501.46 79.33 599.16 168.67 664.66C233.27 712.02 330.43 721.94 407.06 702.46C520.01 673.76 592.75 589.24 614.11 476.02C621.26 438.13 623.26 398.05 618.6 360.78Z"/>
    <path id="citoplasma" fill="#bbead2" d="M362.77 677.82C429.03 669.33 477.78 643.19 515.11 605.66C556 564.56 576.2 509.78 584.25 452.17C593.59 386.53 588.01 323.36 552.38 275.64C519.27 231.28 464.46 200.04 393.22 209.36C366.71 212.82 337.76 225.56 315.41 240.23C275.98 266.1 238.75 309.71 210.66 346.57C176.04 392.01 139.55 446.08 131.21 501.11C123.12 554.5 137.72 610.48 204.2 649.01C249.01 674.98 311.83 684.34 362.77 677.82Z"/>
    <path id="nucleo" fill="#f88e85" d="M376.77 295.19C344.79 298.96 320.33 315.98 303.68 336.36C284.32 360.04 276.92 390.64 279.57 418.13C284.28 467.09 326.01 514.65 391.97 513.12C395.71 512.71 399.48 512.56 402.8 512.02C467.26 501.6 504.16 441.31 497.32 389.4C493.83 362.9 480.56 335.81 457.07 317.48C436.93 301.76 409.19 291.36 376.77 295.19Z"/>
    <path id="nucleolo" fill="#e5635f" d="M454.53 363.26C454.61 343.46 437.43 332.28 422.63 333.15C408.63 333.98 392.29 346.54 392.94 365.95C394.34 407.59 454.36 405.98 454.53 363.26Z"/>
    <g id="trazos" fill="#3baca6">
      <path id="trazo-izquierdo" d="M306.04 578.69C306.08 578.66 342.84 590.39 353.13 587.35C356.74 586.29 361.86 582.53 363.24 576.81C370.2 548.03 305.22 570.14 271.35 522.08C268.66 518.26 261.73 511.94 255.85 514.47C229.3 525.89 263.23 561.72 279.03 566.36C279.08 566.38 280.2 569.55 280.77 567.54C281.16 566.18 273.59 586.19 272.49 586.12C266.66 585.76 254.24 577.63 243.27 568.57C233.78 560.73 228.05 549.21 222.68 541.22C220.89 538.56 212.14 536.07 210.04 536.9C191.28 544.31 200.07 563.62 214.49 580.15C227.34 594.87 245.39 604.89 257.12 611.47C270.78 619.14 328.49 638.5 341.11 629.08C345.79 625.58 346.94 620.73 347.07 617.15C347.87 594.16 296.71 610.32 302.3 588.19C303.98 581.54 304.13 579.97 306.04 578.69Z"/>
      <path id="trazo-derecho" d="M401.89 573.17C397.36 590.84 412.45 597.16 430.8 589.76C442.46 585.06 455.76 578.42 469.33 568.43C480.99 559.86 492.74 548.83 501.53 537.86C514.32 521.92 521.75 509.47 514.87 499.06C509.74 491.3 499.98 490.97 493.14 496.49C488.25 502.66 484.42 511.43 478.13 519.08C472.63 525.79 466.55 532.33 460.27 538.06C451.7 545.89 441.85 552.59 431.93 557.49C415.4 565.66 404.05 564.71 401.89 573.17Z"/>
    </g>
  </g>
  </g>
  <path id="wordmark" fill="#ffffff" fill-rule="nonzero" transform="matrix(0.454204 0 0 0.454204 699.032 600.890)" d="M541.0 -518Q541.0 -493 528.0 -473.5Q515.0 -454 498.0 -443Q473.0 -460 443.0 -472.0Q413.0 -484 374.0 -484Q323.0 -484 287.5 -462.5Q252.0 -441 233.5 -400.5Q215.0 -360 215.0 -303Q215.0 -215 259.5 -169.0Q304.0 -123 383.0 -123Q424.0 -123 452.5 -134.0Q481.0 -145 507.0 -159Q524.0 -146 533.5 -126.0Q543.0 -106 543.0 -80Q543.0 -57 531.0 -38.0Q519.0 -19 490.0 -6Q472.0 2 439.0 10.0Q406.0 18 359.0 18Q269.0 18 195.5 -16.0Q122.0 -50 78.5 -121.0Q35.0 -192 35.0 -303Q35.0 -407 77.0 -478.5Q119.0 -550 190.5 -587.5Q262.0 -625 348.0 -625Q409.0 -625 452.0 -611.0Q495.0 -597 518.0 -573.0Q541.0 -549 541.0 -518ZM672.0 -167 666.0 -279 897.0 -317Q895.0 -337 877.0 -357.0Q859.0 -377 821.0 -377Q781.0 -377 754.5 -351.0Q728.0 -325 726.0 -277L732.0 -193Q742.0 -147 777.5 -129.0Q813.0 -111 857.0 -111Q899.0 -111 937.0 -122.0Q975.0 -133 998.0 -146Q1014.0 -136 1025.0 -118.0Q1036.0 -100 1036.0 -80Q1036.0 -47 1011.5 -25.5Q987.0 -4 944.0 6.0Q901.0 16 845.0 16Q767.0 16 704.5 -13.5Q642.0 -43 605.5 -102.0Q569.0 -161 569.0 -250Q569.0 -316 590.5 -364.0Q612.0 -412 648.0 -442.0Q684.0 -472 728.5 -486.5Q773.0 -501 820.0 -501Q891.0 -501 944.0 -473.5Q997.0 -446 1027.0 -398.5Q1057.0 -351 1057.0 -289Q1057.0 -255 1038.0 -237.0Q1019.0 -219 985.0 -214ZM768.0 -643 869.0 -752Q921.0 -752 947.0 -730.0Q973.0 -708 973.0 -680Q973.0 -657 963.0 -641.5Q953.0 -626 929.0 -606L834.0 -528Q790.0 -528 767.5 -549.0Q745.0 -570 745.0 -594Q745.0 -606 749.5 -617.0Q754.0 -628 768.0 -643ZM1124.0 -264H1294.0V-1Q1283.0 2 1262.5 5.0Q1242.0 8 1218.0 8Q1169.0 8 1146.5 -9.0Q1124.0 -26 1124.0 -72ZM1294.0 -175H1124.0V-652Q1135.0 -655 1155.5 -658.0Q1176.0 -661 1200.0 -661Q1250.0 -661 1272.0 -644.5Q1294.0 -628 1294.0 -581ZM1383.0 -193V-259H1553.0V-193Q1553.0 -153 1573.5 -135.0Q1594.0 -117 1631.0 -117Q1654.0 -117 1669.0 -121.0Q1684.0 -125 1691.0 -129V-259H1861.0V-104Q1861.0 -79 1850.5 -60.5Q1840.0 -42 1819.0 -29Q1784.0 -7 1735.5 4.5Q1687.0 16 1630.0 16Q1558.0 16 1502.0 -5.5Q1446.0 -27 1414.5 -73.0Q1383.0 -119 1383.0 -193ZM1861.0 -216H1691.0V-484Q1702.0 -487 1722.5 -490.0Q1743.0 -493 1767.0 -493Q1817.0 -493 1839.0 -476.5Q1861.0 -460 1861.0 -413ZM1553.0 -216H1383.0V-484Q1394.0 -487 1414.5 -490.0Q1435.0 -493 1459.0 -493Q1509.0 -493 1531.0 -476.5Q1553.0 -460 1553.0 -413ZM2401.0 -334V-221H2231.0V-311Q2231.0 -341 2213.5 -354.5Q2196.0 -368 2171.0 -368Q2152.0 -368 2138.0 -362.5Q2124.0 -357 2115.0 -352V-221H1945.0V-373Q1945.0 -400 1956.5 -417.0Q1968.0 -434 1988.0 -448Q2022.0 -472 2072.5 -486.5Q2123.0 -501 2178.0 -501Q2225.0 -501 2268.0 -486.5Q2311.0 -472 2346.0 -440Q2354.0 -433 2362.5 -426.0Q2371.0 -419 2375.0 -411Q2386.0 -394 2393.5 -374.0Q2401.0 -354 2401.0 -334ZM2687.0 -316V-221H2517.0V-311Q2517.0 -341 2501.0 -354.5Q2485.0 -368 2459.0 -368Q2440.0 -368 2423.0 -360.5Q2406.0 -353 2395.0 -344L2302.0 -439Q2337.0 -464 2379.5 -482.5Q2422.0 -501 2485.0 -501Q2536.0 -501 2582.5 -483.0Q2629.0 -465 2658.0 -424.5Q2687.0 -384 2687.0 -316ZM1945.0 -264H2115.0V-1Q2104.0 2 2083.5 5.0Q2063.0 8 2039.0 8Q1990.0 8 1967.5 -9.0Q1945.0 -26 1945.0 -72ZM2231.0 -264H2401.0V-1Q2390.0 2 2369.5 5.0Q2349.0 8 2325.0 8Q2276.0 8 2253.5 -9.0Q2231.0 -26 2231.0 -72ZM2517.0 -264H2687.0V-1Q2676.0 2 2655.5 5.0Q2635.0 8 2611.0 8Q2562.0 8 2539.5 -9.0Q2517.0 -26 2517.0 -72ZM2980.0 -108Q2997.0 -108 3017.5 -111.5Q3038.0 -115 3048.0 -121V-201L2976.0 -195Q2948.0 -193 2930.0 -183.0Q2912.0 -173 2912.0 -153Q2912.0 -133 2927.5 -120.5Q2943.0 -108 2980.0 -108ZM2972.0 -501Q3081.0 -501 3146.5 -456.5Q3212.0 -412 3212.0 -318V-94Q3212.0 -68 3197.5 -51.5Q3183.0 -35 3163.0 -23Q3131.0 -4 3085.0 6.0Q3039.0 16 2980.0 16Q2875.0 16 2811.5 -24.5Q2748.0 -65 2748.0 -147Q2748.0 -216 2789.5 -253.0Q2831.0 -290 2916.0 -299L3047.0 -313V-320Q3047.0 -349 3021.5 -361.5Q2996.0 -374 2948.0 -374Q2911.0 -374 2874.5 -366.0Q2838.0 -358 2809.0 -346Q2796.0 -355 2787.0 -373.5Q2778.0 -392 2778.0 -412Q2778.0 -460 2829.0 -480Q2858.0 -491 2897.5 -496.0Q2937.0 -501 2972.0 -501Z"/>
</svg>
